<mxfile host="app.diagrams.net" modified="2024-07-04T11:37:59.253Z" agent="Mozilla/5.0 (Macintosh; Intel Mac OS X 10_15_7) AppleWebKit/605.1.15 (KHTML, like Gecko) Version/17.5 Safari/605.1.15" etag="1JfrW3StwBHD_TAOkuoh" version="24.6.4" type="device">
  <diagram id="C5RBs43oDa-KdzZeNtuy" name="Page-1">
    <mxGraphModel dx="2765" dy="1069" grid="1" gridSize="10" guides="1" tooltips="1" connect="1" arrows="1" fold="1" page="1" pageScale="1" pageWidth="827" pageHeight="1169" background="#FFFFFF" math="0" shadow="0">
      <root>
        <mxCell id="WIyWlLk6GJQsqaUBKTNV-0" />
        <mxCell id="WIyWlLk6GJQsqaUBKTNV-1" parent="WIyWlLk6GJQsqaUBKTNV-0" />
        <mxCell id="RmVeTBXAw_z7LC56snDp-1" style="edgeStyle=orthogonalEdgeStyle;rounded=0;orthogonalLoop=1;jettySize=auto;html=1;exitX=0.5;exitY=1;exitDx=0;exitDy=0;entryX=0.5;entryY=0;entryDx=0;entryDy=0;" edge="1" parent="WIyWlLk6GJQsqaUBKTNV-1" source="RmVeTBXAw_z7LC56snDp-2" target="RmVeTBXAw_z7LC56snDp-4">
          <mxGeometry relative="1" as="geometry" />
        </mxCell>
        <mxCell id="RmVeTBXAw_z7LC56snDp-2" value="" style="ellipse;whiteSpace=wrap;html=1;aspect=fixed;fillColor=#000000;" vertex="1" parent="WIyWlLk6GJQsqaUBKTNV-1">
          <mxGeometry x="399" y="40" width="40" height="40" as="geometry" />
        </mxCell>
        <mxCell id="RmVeTBXAw_z7LC56snDp-3" style="edgeStyle=orthogonalEdgeStyle;rounded=0;orthogonalLoop=1;jettySize=auto;html=1;exitX=0.5;exitY=1;exitDx=0;exitDy=0;entryX=0.5;entryY=0;entryDx=0;entryDy=0;" edge="1" parent="WIyWlLk6GJQsqaUBKTNV-1" source="RmVeTBXAw_z7LC56snDp-4" target="RmVeTBXAw_z7LC56snDp-5">
          <mxGeometry relative="1" as="geometry" />
        </mxCell>
        <mxCell id="RmVeTBXAw_z7LC56snDp-4" value="Proceed to Check-out" style="rounded=1;whiteSpace=wrap;html=1;" vertex="1" parent="WIyWlLk6GJQsqaUBKTNV-1">
          <mxGeometry x="359" y="120" width="120" height="30" as="geometry" />
        </mxCell>
        <mxCell id="RmVeTBXAw_z7LC56snDp-10" style="edgeStyle=orthogonalEdgeStyle;rounded=0;orthogonalLoop=1;jettySize=auto;html=1;exitX=0.5;exitY=1;exitDx=0;exitDy=0;entryX=0.5;entryY=0;entryDx=0;entryDy=0;" edge="1" parent="WIyWlLk6GJQsqaUBKTNV-1" source="RmVeTBXAw_z7LC56snDp-5" target="RmVeTBXAw_z7LC56snDp-7">
          <mxGeometry relative="1" as="geometry" />
        </mxCell>
        <mxCell id="RmVeTBXAw_z7LC56snDp-5" value="Add Payment Details" style="rounded=1;whiteSpace=wrap;html=1;" vertex="1" parent="WIyWlLk6GJQsqaUBKTNV-1">
          <mxGeometry x="359" y="180" width="120" height="30" as="geometry" />
        </mxCell>
        <mxCell id="RmVeTBXAw_z7LC56snDp-11" style="edgeStyle=orthogonalEdgeStyle;rounded=0;orthogonalLoop=1;jettySize=auto;html=1;exitX=0;exitY=0.5;exitDx=0;exitDy=0;entryX=0.5;entryY=0;entryDx=0;entryDy=0;" edge="1" parent="WIyWlLk6GJQsqaUBKTNV-1" source="RmVeTBXAw_z7LC56snDp-7" target="RmVeTBXAw_z7LC56snDp-8">
          <mxGeometry relative="1" as="geometry" />
        </mxCell>
        <mxCell id="RmVeTBXAw_z7LC56snDp-13" value="YES" style="edgeLabel;html=1;align=center;verticalAlign=middle;resizable=0;points=[];" vertex="1" connectable="0" parent="RmVeTBXAw_z7LC56snDp-11">
          <mxGeometry x="0.0679" y="4" relative="1" as="geometry">
            <mxPoint as="offset" />
          </mxGeometry>
        </mxCell>
        <mxCell id="RmVeTBXAw_z7LC56snDp-12" style="edgeStyle=orthogonalEdgeStyle;rounded=0;orthogonalLoop=1;jettySize=auto;html=1;exitX=1;exitY=0.5;exitDx=0;exitDy=0;entryX=0.5;entryY=0;entryDx=0;entryDy=0;" edge="1" parent="WIyWlLk6GJQsqaUBKTNV-1" source="RmVeTBXAw_z7LC56snDp-7" target="RmVeTBXAw_z7LC56snDp-9">
          <mxGeometry relative="1" as="geometry" />
        </mxCell>
        <mxCell id="RmVeTBXAw_z7LC56snDp-14" value="NO" style="edgeLabel;html=1;align=center;verticalAlign=middle;resizable=0;points=[];" vertex="1" connectable="0" parent="RmVeTBXAw_z7LC56snDp-12">
          <mxGeometry x="0.185" y="1" relative="1" as="geometry">
            <mxPoint as="offset" />
          </mxGeometry>
        </mxCell>
        <mxCell id="RmVeTBXAw_z7LC56snDp-7" value="Detail verified ?" style="rhombus;whiteSpace=wrap;html=1;" vertex="1" parent="WIyWlLk6GJQsqaUBKTNV-1">
          <mxGeometry x="363.5" y="250" width="111" height="110" as="geometry" />
        </mxCell>
        <mxCell id="RmVeTBXAw_z7LC56snDp-16" style="edgeStyle=orthogonalEdgeStyle;rounded=0;orthogonalLoop=1;jettySize=auto;html=1;exitX=0.5;exitY=1;exitDx=0;exitDy=0;entryX=0.5;entryY=0;entryDx=0;entryDy=0;" edge="1" parent="WIyWlLk6GJQsqaUBKTNV-1" source="RmVeTBXAw_z7LC56snDp-8" target="RmVeTBXAw_z7LC56snDp-15">
          <mxGeometry relative="1" as="geometry" />
        </mxCell>
        <mxCell id="RmVeTBXAw_z7LC56snDp-8" value="send Details to Stripe" style="rounded=1;whiteSpace=wrap;html=1;" vertex="1" parent="WIyWlLk6GJQsqaUBKTNV-1">
          <mxGeometry x="239" y="400" width="120" height="30" as="geometry" />
        </mxCell>
        <mxCell id="RmVeTBXAw_z7LC56snDp-29" style="edgeStyle=orthogonalEdgeStyle;rounded=0;orthogonalLoop=1;jettySize=auto;html=1;exitX=0.5;exitY=1;exitDx=0;exitDy=0;entryX=1;entryY=0.5;entryDx=0;entryDy=0;" edge="1" parent="WIyWlLk6GJQsqaUBKTNV-1" source="RmVeTBXAw_z7LC56snDp-9" target="RmVeTBXAw_z7LC56snDp-21">
          <mxGeometry relative="1" as="geometry">
            <Array as="points">
              <mxPoint x="539" y="510" />
              <mxPoint x="610" y="510" />
              <mxPoint x="610" y="780" />
            </Array>
          </mxGeometry>
        </mxCell>
        <mxCell id="RmVeTBXAw_z7LC56snDp-9" value="Show Error Message" style="rounded=1;whiteSpace=wrap;html=1;" vertex="1" parent="WIyWlLk6GJQsqaUBKTNV-1">
          <mxGeometry x="479" y="400" width="120" height="30" as="geometry" />
        </mxCell>
        <mxCell id="RmVeTBXAw_z7LC56snDp-23" style="edgeStyle=orthogonalEdgeStyle;rounded=0;orthogonalLoop=1;jettySize=auto;html=1;exitX=1;exitY=0.5;exitDx=0;exitDy=0;entryX=0.5;entryY=0;entryDx=0;entryDy=0;" edge="1" parent="WIyWlLk6GJQsqaUBKTNV-1" source="RmVeTBXAw_z7LC56snDp-15" target="RmVeTBXAw_z7LC56snDp-17">
          <mxGeometry relative="1" as="geometry" />
        </mxCell>
        <mxCell id="RmVeTBXAw_z7LC56snDp-15" value="Send Payment Details to Stripe" style="rounded=1;whiteSpace=wrap;html=1;" vertex="1" parent="WIyWlLk6GJQsqaUBKTNV-1">
          <mxGeometry x="239" y="480" width="120" height="30" as="geometry" />
        </mxCell>
        <mxCell id="RmVeTBXAw_z7LC56snDp-24" style="edgeStyle=orthogonalEdgeStyle;rounded=0;orthogonalLoop=1;jettySize=auto;html=1;exitX=0;exitY=0.5;exitDx=0;exitDy=0;entryX=0.5;entryY=0;entryDx=0;entryDy=0;" edge="1" parent="WIyWlLk6GJQsqaUBKTNV-1" source="RmVeTBXAw_z7LC56snDp-17" target="RmVeTBXAw_z7LC56snDp-18">
          <mxGeometry relative="1" as="geometry" />
        </mxCell>
        <mxCell id="RmVeTBXAw_z7LC56snDp-30" value="Success" style="edgeLabel;html=1;align=center;verticalAlign=middle;resizable=0;points=[];" vertex="1" connectable="0" parent="RmVeTBXAw_z7LC56snDp-24">
          <mxGeometry x="0.2432" relative="1" as="geometry">
            <mxPoint y="1" as="offset" />
          </mxGeometry>
        </mxCell>
        <mxCell id="RmVeTBXAw_z7LC56snDp-25" style="edgeStyle=orthogonalEdgeStyle;rounded=0;orthogonalLoop=1;jettySize=auto;html=1;exitX=1;exitY=0.5;exitDx=0;exitDy=0;" edge="1" parent="WIyWlLk6GJQsqaUBKTNV-1" source="RmVeTBXAw_z7LC56snDp-17" target="RmVeTBXAw_z7LC56snDp-22">
          <mxGeometry relative="1" as="geometry" />
        </mxCell>
        <mxCell id="RmVeTBXAw_z7LC56snDp-31" value="Failure" style="edgeLabel;html=1;align=center;verticalAlign=middle;resizable=0;points=[];" vertex="1" connectable="0" parent="RmVeTBXAw_z7LC56snDp-25">
          <mxGeometry x="0.2227" y="-1" relative="1" as="geometry">
            <mxPoint y="1" as="offset" />
          </mxGeometry>
        </mxCell>
        <mxCell id="RmVeTBXAw_z7LC56snDp-17" value="Payment Status ?" style="rhombus;whiteSpace=wrap;html=1;" vertex="1" parent="WIyWlLk6GJQsqaUBKTNV-1">
          <mxGeometry x="363.5" y="520" width="111" height="110" as="geometry" />
        </mxCell>
        <mxCell id="RmVeTBXAw_z7LC56snDp-26" style="edgeStyle=orthogonalEdgeStyle;rounded=0;orthogonalLoop=1;jettySize=auto;html=1;exitX=0.5;exitY=1;exitDx=0;exitDy=0;entryX=0.5;entryY=0;entryDx=0;entryDy=0;" edge="1" parent="WIyWlLk6GJQsqaUBKTNV-1" source="RmVeTBXAw_z7LC56snDp-18" target="RmVeTBXAw_z7LC56snDp-19">
          <mxGeometry relative="1" as="geometry" />
        </mxCell>
        <mxCell id="RmVeTBXAw_z7LC56snDp-18" value="Update Order Status" style="rounded=1;whiteSpace=wrap;html=1;" vertex="1" parent="WIyWlLk6GJQsqaUBKTNV-1">
          <mxGeometry x="239" y="640" width="120" height="30" as="geometry" />
        </mxCell>
        <mxCell id="RmVeTBXAw_z7LC56snDp-27" style="edgeStyle=orthogonalEdgeStyle;rounded=0;orthogonalLoop=1;jettySize=auto;html=1;exitX=0.5;exitY=1;exitDx=0;exitDy=0;entryX=0;entryY=0.5;entryDx=0;entryDy=0;" edge="1" parent="WIyWlLk6GJQsqaUBKTNV-1" source="RmVeTBXAw_z7LC56snDp-19" target="RmVeTBXAw_z7LC56snDp-21">
          <mxGeometry relative="1" as="geometry" />
        </mxCell>
        <mxCell id="RmVeTBXAw_z7LC56snDp-19" value="Send Notification to User" style="rounded=1;whiteSpace=wrap;html=1;" vertex="1" parent="WIyWlLk6GJQsqaUBKTNV-1">
          <mxGeometry x="239" y="710" width="120" height="30" as="geometry" />
        </mxCell>
        <mxCell id="RmVeTBXAw_z7LC56snDp-21" value="" style="ellipse;whiteSpace=wrap;html=1;aspect=fixed;fillColor=#000000;" vertex="1" parent="WIyWlLk6GJQsqaUBKTNV-1">
          <mxGeometry x="399" y="760" width="40" height="40" as="geometry" />
        </mxCell>
        <mxCell id="RmVeTBXAw_z7LC56snDp-28" style="edgeStyle=orthogonalEdgeStyle;rounded=0;orthogonalLoop=1;jettySize=auto;html=1;exitX=0.5;exitY=1;exitDx=0;exitDy=0;entryX=0.5;entryY=0;entryDx=0;entryDy=0;" edge="1" parent="WIyWlLk6GJQsqaUBKTNV-1" source="RmVeTBXAw_z7LC56snDp-22" target="RmVeTBXAw_z7LC56snDp-21">
          <mxGeometry relative="1" as="geometry" />
        </mxCell>
        <mxCell id="RmVeTBXAw_z7LC56snDp-22" value="Show Error Message" style="rounded=1;whiteSpace=wrap;html=1;" vertex="1" parent="WIyWlLk6GJQsqaUBKTNV-1">
          <mxGeometry x="479" y="640" width="120" height="30" as="geometry" />
        </mxCell>
      </root>
    </mxGraphModel>
  </diagram>
</mxfile>
